PathFileType	4	(X/Y/Z)	regression/subject01/trials/walk2/markers.trc
DataRate	CameraRate	NumFrames	NumMarkers	Units	OrigDataRate	OrigDataStartFrame	OrigNumFrames
200.00000000000426	200.00000000000426	4	64	m	200.00000000000426	167	223
Frame#	Time	CLAV			C7			RACR			RASH			RPSH			RLEL			RMEL			RUA1			RUA2			RUA3			RFAsuperior			RFAradius			RFAulna			RASI			RPSI			RCAL			RTOE			RMT5			RTH1			RTH2			RTH3			RTB1			RTB2			RTB3			RLFC			RMFC			RLMAL			RMMAL			RHJC			RKJC			REJC			RAJC			RSJC			LACR			LASH			LPSH			LLEL			LMEL			LUA1			LUA2			LUA3			LFAsuperior			LFAradius			LFAulna			LASI			LPSI			LCAL			LTOE			LMT5			LTH1			LTH2			LTH3			LTB1			LTB2			LTB3			LLFC			LMFC			LLMAL			LMMAL			LHJC			LKJC			LEJC			LAJC			LSJC			
		X1	Y1	Z1	X2	Y2	Z2	X3	Y3	Z3	X4	Y4	Z4	X5	Y5	Z5	X6	Y6	Z6	X7	Y7	Z7	X8	Y8	Z8	X9	Y9	Z9	X10	Y10	Z10	X11	Y11	Z11	X12	Y12	Z12	X13	Y13	Z13	X14	Y14	Z14	X15	Y15	Z15	X16	Y16	Z16	X17	Y17	Z17	X18	Y18	Z18	X19	Y19	Z19	X20	Y20	Z20	X21	Y21	Z21	X22	Y22	Z22	X23	Y23	Z23	X24	Y24	Z24	X25	Y25	Z25	X26	Y26	Z26	X27	Y27	Z27	X28	Y28	Z28	X29	Y29	Z29	X30	Y30	Z30	X31	Y31	Z31	X32	Y32	Z32	X33	Y33	Z33	X34	Y34	Z34	X35	Y35	Z35	X36	Y36	Z36	X37	Y37	Z37	X38	Y38	Z38	X39	Y39	Z39	X40	Y40	Z40	X41	Y41	Z41	X42	Y42	Z42	X43	Y43	Z43	X44	Y44	Z44	X45	Y45	Z45	X46	Y46	Z46	X47	Y47	Z47	X48	Y48	Z48	X49	Y49	Z49	X50	Y50	Z50	X51	Y51	Z51	X52	Y52	Z52	X53	Y53	Z53	X54	Y54	Z54	X55	Y55	Z55	X56	Y56	Z56	X57	Y57	Z57	X58	Y58	Z58	X59	Y59	Z59	X60	Y60	Z60	X61	Y61	Z61	X62	Y62	Z62	X63	Y63	Z63	X64	Y64	Z64	

168	4.215	2.034727483112934	1.462262831209657	-0.5380357226468825	1.922977167868103	1.538589753870994	-0.526096715667739	2.01579717344229	1.511779658169186	-0.3859338511934248	2.06210436886801	1.450028420625703	-0.34517398648058	1.964551776527304	1.469000569001356	-0.335294403409403	1.916529468514013	1.140396725868764	-0.2610554308278009	1.915026687251663	1.123269181120033	-0.3489010370029035	1.993478947261052	1.405141727464899	-0.314222082568875	1.934919718618636	1.23361160478927	-0.2949052897530652	1.99474436934939	1.303389678735225	-0.2965944187869292	1.969194444840835	1.054877842002107	-0.3000463362594429	2.064281002279897	0.9134413962115876	-0.2784180876881436	2.009972766335562	0.8833300530041532	-0.2724596941433954	2.017363330685418	1.016641339423792	-0.3977573986743411	1.863867837852191	1.058620705830086	-0.4908524234541182	1.64027613152472	0.3116177245146385	-0.4064396132591108	1.772237661732175	0.09724734046937596	-0.4501524530765096	1.707078134552798	0.1297181194915659	-0.3536846811004985	2.009604953880731	0.7942434625284931	-0.3674616084466688	2.112856783226517	0.7348697080765679	-0.4221937551152442	2.048422426109833	0.6478334173358172	-0.3515552067682203	1.926143760360638	0.4152519561855604	-0.3536067732536513	1.880632595496867	0.3279158169362114	-0.4177484250763433	1.79962038369805	0.3035168289110767	-0.3499821573774226	2.070508680496848	0.5435092316291698	-0.3487536241739344	2.077017066117501	0.5294535961820646	-0.4614626693626456	1.696263216444706	0.2531812038836272	-0.3534941225437468	1.702551489405572	0.2472710555016712	-0.4578133014751584	1.944284476985265	0.9206014813648657	-0.4604874373876074	2.079782907617292	0.5274982493806931	-0.4068721793156208	1.920518961825471	1.125421286657468	-0.3100103358833274	1.680831394495564	0.2529540198590949	-0.4138160000850599	2.016405856986006	1.458915923532278	-0.3405458957908871	1.986437804575927	1.515153985439724	-0.6823128338843006	2.023711348042765	1.454441002441023	-0.73274650230711	1.918354548314803	1.474930922686727	-0.7220765525902388	1.905161566510917	1.134376148788266	-0.7931687451979094	1.89453217961491	1.123474138712041	-0.7049609096393216	1.961174813243347	1.406499031986729	-0.7525549096589841	1.9145176414272	1.230723044279846	-0.7648355933853938	1.969917753003456	1.304027389364386	-0.761985641697736	1.944478123840547	1.046552139809659	-0.7470178533226495	2.018967241138991	0.891927594115652	-0.7545094494642843	1.960992699395559	0.8692005825980808	-0.7582531631145047	2.032755017796221	1.031511721822646	-0.6623804086554776	1.869259433318518	1.063829692067074	-0.5835479291923106	1.882203589796566	0.04817669972599131	-0.5708965689393761	2.136892569708258	0.05139392111901939	-0.5508343563655368	2.066872841884255	0.01290113122439471	-0.6415078880280028	2.003247717933401	0.7823482733284499	-0.6885511236648745	2.10006174648115	0.7224327712859561	-0.6235975452317288	2.025460288960827	0.6320326931668865	-0.6781810153250943	2.012130566554887	0.337506844847426	-0.6464666258019176	2.042416337645414	0.2469595178512787	-0.5779321637548027	2.001339173085685	0.1690975911848904	-0.6411835909526109	2.035866148560095	0.5270436734286477	-0.6624263004232114	2.042327950807532	0.5323816956940923	-0.5489670589813234	1.963714044235762	0.06084025004295834	-0.6315186627699911	1.973759733792289	0.0665085194054218	-0.5274806016220661	1.953541247334784	0.9295447319575258	-0.6196353212394462	2.042441598896824	0.5279596871091337	-0.6034506103942927	1.904318034466776	1.123194334299447	-0.743058685889651	1.953766319459155	0.05294373862114676	-0.5705628629598476	1.978012836160761	1.463328505347597	-0.7281184116174171	
169	4.220000000000001	2.040662622314743	1.463175191948581	-0.5379734778055063	1.928947987194451	1.539583238006679	-0.5262209135984797	2.021440410969974	1.512593340192948	-0.3858761231568296	2.06760887345106	1.450774273520237	-0.3450617344488723	1.970050260511841	1.469817673897341	-0.3353806812265755	1.920090776611641	1.141620263962921	-0.2617217164421594	1.918976974978874	1.124539106353395	-0.3495821464749954	1.998584086227546	1.406019140424344	-0.3143512279201734	1.939105863822803	1.234761472946861	-0.2954288306422435	1.99927039213553	1.304254394797894	-0.2967648475097091	1.971657379513554	1.055278478691898	-0.300246111761295	2.06398590776101	0.9121449402458937	-0.2778466523188537	2.009091631913484	0.8829868911850455	-0.2725545271392544	2.023281200906223	1.017941634091509	-0.3981925860518554	1.869599730948963	1.05965822905757	-0.4910987142617306	1.654068104056086	0.3080687309881827	-0.4072580318055297	1.791206139858892	0.09688237721610449	-0.4505339199178593	1.725235841678684	0.1279359673083774	-0.3541506184442167	2.017211989340126	0.7962241991583283	-0.3676911160181938	2.121280333530096	0.7383358816375367	-0.4224680572625643	2.058057481897145	0.6503536816055585	-0.3519066633955597	1.939041814019896	0.4160737774849901	-0.3541563410885213	1.894764665303492	0.3281594199594638	-0.4183717495759077	1.814102307238161	0.3025673310023841	-0.350628225241975	2.081589686928604	0.5463438041747372	-0.3491922676214527	2.088297208332209	0.5324754065468635	-0.46191283159456	1.711463342358135	0.2507860153171637	-0.354185092281029	1.717836117458439	0.2450513745517173	-0.4585089388189283	1.95014758127187	0.9217420905605609	-0.4606133554694946	2.09108817455827	0.5305138445338488	-0.4073239692999928	1.924271051080831	1.126647734103922	-0.3106615899650103	1.696037400865253	0.2503918320301176	-0.4145076137796748	2.021907541219683	1.459695154426892	-0.3405266450668873	1.992730368256072	1.516213306261334	-0.6823158122989349	2.030064971440572	1.455508075301972	-0.7327136356347023	1.924701669466215	1.476074947709245	-0.7222580981546217	1.912468176552214	1.135375159009226	-0.7937769248337359	1.901859624518482	1.12429802057351	-0.7055884019339754	1.967692346790363	1.407591340132667	-0.7527102380546284	1.92154323783262	1.231702040608061	-0.7652847672366636	1.976731594539518	1.305160902483635	-0.7623077735358887	1.952753324076487	1.047959172136413	-0.7476927557946687	2.029044481084987	0.8942172393285416	-0.7552147368191788	1.971334412308033	0.8708055989764496	-0.7588234751803101	2.038202804922163	1.032320310829246	-0.662869689529177	1.874826659743936	1.064694974396328	-0.5838131685561592	1.882380460016997	0.04851970825894011	-0.5708819071777566	2.137085421969939	0.05136929146718874	-0.5509675503616941	2.066956318236514	0.01292367831258606	-0.6415765462797411	2.007356297322223	0.7826544023925455	-0.6886024975924453	2.103511151414876	0.7217827847798021	-0.6235588117840014	2.028018729716749	0.6321242725998325	-0.6781404227473109	2.012967180080496	0.3376236433398082	-0.6464255369746457	2.043097547179643	0.2469663226014067	-0.5779680317631077	2.001741921849225	0.1692407799028708	-0.6412057450422647	2.037337025423826	0.5270423248279832	-0.6623245813588352	2.043784913148922	0.5323736809402035	-0.5488642348740423	1.963845466071454	0.06107774735736365	-0.6315449946101176	1.97402948435631	0.06667243001430095	-0.5275163994009501	1.959121637242972	0.930389622668837	-0.6197937718869957	2.043826973118315	0.5279770427394017	-0.6033595654956724	1.911650830262677	1.124108848057216	-0.7436853611924936	1.953949533115008	0.05317953760274241	-0.5705809851869035	1.984363639209195	1.464428956208627	-0.7281785462527173	
170	4.225	2.046591106043163	1.464059412248826	-0.5379010208823066	1.934915007281412	1.540550325910193	-0.5263225468670522	2.027090134850524	1.513373127751852	-0.3858052561094467	2.073121816021746	1.451483720665697	-0.3449430011933027	1.975558801056001	1.470599979568383	-0.3354517628968922	1.923624977905016	1.142842877618023	-0.2623412134595979	1.922882035321002	1.125798588817916	-0.3502127214728833	2.00369484016944	1.406869336258645	-0.3144629680500167	1.94327424592286	1.235900942756564	-0.2959139803900966	2.003787387884082	1.305096211961315	-0.2969119609610283	1.974081033609728	1.055703880186908	-0.300404613255481	2.063633774881054	0.910934199446362	-0.2772626857471661	2.008181759817302	0.8827303588377395	-0.272658629376049	2.0291956257401	1.01921881691404	-0.3986295147904255	1.875323033331775	1.060670085203922	-0.4913378468077688	1.667990426827574	0.3041743250736968	-0.4081868085150768	1.810405021101549	0.09640519303207686	-0.4509581830985432	1.743597179776304	0.1259769133898275	-0.3546857976751653	2.024715084122227	0.7981756530389009	-0.3678912945687369	2.129589400931917	0.7417551997223	-0.4226626463976748	2.067526756623219	0.6528579801343818	-0.3522182049812425	1.951874263423287	0.4167988606631123	-0.3547108581810622	1.908940854552045	0.3282832273390156	-0.4190126770100144	1.828643494420984	0.3014353838773685	-0.3513215891736512	2.092466148388554	0.5491743872517894	-0.3495863754716467	2.099423581272923	0.5355030291613776	-0.4623158611184074	1.726791167215068	0.2481289357517373	-0.3549601465577973	1.733289647215662	0.2425722263003341	-0.4592858675541343	1.95600569735685	0.9228586450406093	-0.4607357351781822	2.102214282901267	0.5335399560474376	-0.4077279929638318	1.927984746970334	1.127867231094922	-0.3112644695895946	1.711396386562112	0.2475517374666725	-0.4152891546894357	2.027418421661043	1.46043873214866	-0.3404968306133492	1.999005889730511	1.517251190365216	-0.6823016233924949	2.036396264710959	1.456555033313942	-0.732669019948058	1.931028208547954	1.477200592928843	-0.7224184825879346	1.919695438393209	1.136367988116999	-0.7943543657161444	1.909125279675275	1.12511723790674	-0.7061832122258899	1.974175523793156	1.408667138975518	-0.752846249118544	1.928508491819006	1.232672604491116	-0.7657051274246321	1.983495172459208	1.306277779938805	-0.7626124433081677	1.96098169801192	1.049387988525724	-0.7483374038350845	2.039122597349121	0.8965793455765741	-0.7558886441664028	1.981694099686871	0.8724634686100827	-0.7593487119648232	2.043632614801606	1.033103233695742	-0.6633598795651368	1.880380205051227	1.065533694893614	-0.5840709581452798	1.882558023991435	0.04887547821372349	-0.5708648540490544	2.137278792812809	0.05134365165927331	-0.5511023282439171	2.067036808474852	0.01294670323198338	-0.6416444979235849	2.011435629432432	0.782947093547915	-0.6886506995118674	2.106919627755684	0.7211212739147219	-0.6235187952651138	2.03053756875399	0.6322173773993603	-0.6780970422374314	2.013772630395555	0.3377542956280258	-0.6463829924524062	2.04376058177893	0.2469889221086217	-0.5780061792296924	2.002129342774064	0.1693978203941343	-0.6412281452595509	2.038761871802753	0.5270533364660097	-0.6622202492625804	2.045198884376773	0.5323785018464727	-0.5487589945482392	1.963972437511775	0.06132612549795557	-0.6315703809250331	1.974301727209227	0.06684590553309205	-0.5275521078843757	1.964688299291181	0.9312089224767339	-0.619948183665651	2.045166682546715	0.5280088888241772	-0.6032665843686721	1.918913541040352	1.125017394338566	-0.7442812669219255	1.954133513435296	0.05342405662704763	-0.5705976449528224	1.990692870350255	1.465510044796905	-0.7282228493681044	
171	4.23	2.052513728441474	1.464910046507476	-0.5378183974703953	1.940879108640324	1.541485811904548	-0.526401927629761	2.032747192238125	1.514114124453066	-0.3857214059286276	2.078643944159636	1.452151927025578	-0.3448177079201464	1.981078134072592	1.47134286536803	-0.3355076361892231	1.927133194665041	1.144059978880006	-0.2629152657748063	1.926741044823181	1.127044112781239	-0.3507945476581024	2.00881228864037	1.407687470244026	-0.314557326262539	1.947425645575267	1.237025534695614	-0.2963614878078953	2.008296404645886	1.305910337569169	-0.2970369275129212	1.976467937472092	1.056150301522676	-0.3005244871545876	2.063232352394725	0.9098066963998355	-0.2766710118834242	2.007251821481876	0.882556302740799	-0.2727753554665028	2.03510591556195	1.02046568726716	-0.399067871264274	1.881037734730809	1.061650036047948	-0.4915700995272828	1.682052250024015	0.2999505883785682	-0.4092236421815214	1.829815959730217	0.09583119582868936	-0.4514193653562424	1.762149538823133	0.1238594149888288	-0.3552849754902844	2.032115017566779	0.8000883059275027	-0.368063269711751	2.137785234196332	0.7451168870621869	-0.4227783433689843	2.076830433326148	0.655334373812384	-0.3524895152314427	1.964640327825355	0.417424760582013	-0.3552680013965139	1.923158373958876	0.3282905816758944	-0.4196680363261148	1.843242838559745	0.3001285796620348	-0.3520591244914296	2.103137702462361	0.5519874479655669	-0.3499345729927679	2.110395107905886	0.5385237169220409	-0.4626701346012323	1.742247215713065	0.2452242689244763	-0.355815971189649	1.748912515364216	0.2398485065893136	-0.4601406484406577	1.961859245694174	0.9239447446366197	-0.460856737074127	2.113159973378979	0.5365631366528713	-0.4080826169926797	1.931660067523014	1.129075788712787	-0.3118207259260957	1.726909694093537	0.2444491503937337	-0.4161573440046094	2.03293924042436	1.4611419220921	-0.3404564048177954	2.005265265291583	1.51826178139477	-0.6822705597612378	2.042706039691081	1.457575786103191	-0.7326127552397137	1.937334964797073	1.47830199951304	-0.7225578777703165	1.926846282805331	1.137347878537168	-0.7949023889510866	1.916329592459022	1.125925346445853	-0.7067469300832392	1.9806258849261	1.409720245481769	-0.7529633960249023	1.935415437989177	1.233628215509986	-0.7660979762306154	1.990210417026229	1.307371705582447	-0.7628996110515271	1.969163633677911	1.050832824356555	-0.7489519593726144	2.049200352263767	0.8990098751413248	-0.7565294595756341	1.992071440534727	0.874170867208653	-0.7598296208371221	2.049046118262836	1.033858329882722	-0.6638501924050777	1.885920885820141	1.066341380842601	-0.584321410799983	1.882736118593706	0.04924336740809952	-0.5708463072521645	2.137472371118438	0.05131607141172786	-0.5512385301451868	2.067114334047135	0.01296930265556777	-0.6417118325498083	2.015489609128099	0.7832238393745196	-0.6886973934075451	2.110291525789711	0.7204470521146273	-0.623478819070703	2.033022593146794	0.6323099899321765	-0.6780524126265144	2.014551578082967	0.3378971552327733	-0.6463400204394655	2.044408202720163	0.247025388741577	-0.578047100858988	2.002503577620642	0.1695671442163599	-0.6412513638905989	2.040147777423447	0.5270749644656356	-0.6621147721074211	2.046576534156181	0.532394463150498	-0.5486527834981382	1.96409541764123	0.06158433096050148	-0.6315953627920341	1.974576125547163	0.06702806794185795	-0.5275882293197609	1.970243073542213	0.9319992623885055	-0.6201004328281008	2.046467826864471	0.5280533775294614	-0.6031730704161484	1.926107697808535	1.125913398502362	-0.7448477215964316	1.954318083306478	0.05367656859829678	-0.5706134582703684	1.997001335955805	1.466565781169713	-0.7282514521373626	
